<svg width="24" height="24" viewBox="0 0 24 24" fill="none" xmlns="http://www.w3.org/2000/svg">
<path d="M6.50002 20.6603C5.18655 19.9019 4.32474 18.803 3.91459 17.3633C3.50445 15.9237 3.67854 14.5472 4.43688 13.2337L9.81188 3.92395C10.3452 3.00019 11.1277 2.40313 12.1595 2.13278C13.1912 1.86243 14.169 1.99392 15.0927 2.52725C16.0309 3.06892 16.6373 3.85201 16.9118 4.87653C17.1863 5.90105 17.0527 6.88241 16.5111 7.8206L11.5861 16.351C11.2694 16.8994 10.813 17.2566 10.2169 17.4224C9.6208 17.5882 9.0485 17.5128 8.50002 17.1962C7.95153 16.8795 7.6084 16.4071 7.47063 15.7791C7.33285 15.1511 7.42646 14.5556 7.75146 13.9927L12.6515 5.50565L13.5175 6.00565L8.57999 14.5576C8.39665 14.8752 8.34505 15.2062 8.42517 15.5508C8.50529 15.8954 8.69691 16.1551 9.00002 16.3301C9.30313 16.5051 9.62182 16.5448 9.95611 16.4491C10.2904 16.3535 10.545 16.1541 10.72 15.851L15.6575 7.29895C16.0575 6.60613 16.1533 5.88198 15.9448 5.1265C15.7362 4.37102 15.2855 3.79328 14.5927 3.39328C13.8999 2.99328 13.1742 2.89185 12.4157 3.089C11.6572 3.28615 11.0779 3.73113 10.6779 4.42395L5.2779 13.777C4.66957 14.8307 4.53748 15.9428 4.88164 17.1134C5.22579 18.2839 5.93192 19.1776 7.00002 19.7942C8.08255 20.4192 9.2152 20.5824 10.398 20.2838C11.5807 19.9852 12.4805 19.3018 13.0971 18.2337L18.4971 8.88065L19.3632 9.38065L13.9757 18.7121C13.2173 20.0255 12.1102 20.8682 10.6542 21.24C9.19821 21.6118 7.81349 21.4186 6.50002 20.6603Z" fill="#415174"/>
</svg>
