<svg width="24" height="24" viewBox="0 0 24 24" fill="none" xmlns="http://www.w3.org/2000/svg">
<path d="M4.5 21C4.0875 21 3.73438 20.8531 3.44063 20.5594C3.14688 20.2656 3 19.9125 3 19.5V4.5C3 4.0875 3.14688 3.73438 3.44063 3.44063C3.73438 3.14688 4.0875 3 4.5 3H14.725V4.5H4.5V19.5H19.5V9.3H21V19.5C21 19.9125 20.8531 20.2656 20.5594 20.5594C20.2656 20.8531 19.9125 21 19.5 21H4.5ZM17.5 8.55V6.525H15.475V5.025H17.5V3H19V5.025H21.025V6.525H19V8.55H17.5ZM6 16.95H18L14.4 12.15L11.225 16.325L8.875 13.225L6 16.95Z" fill="#415174"/>
</svg>
