<svg width="24" height="24" viewBox="0 0 24 24" fill="none" xmlns="http://www.w3.org/2000/svg">
<path fill-rule="evenodd" clip-rule="evenodd" d="M13.8125 19.5C15.8208 20.5 17.8417 21 19.875 21C20.1917 21 20.4583 20.8917 20.675 20.675C20.8917 20.4583 21 20.1917 21 19.875V16.5C21 16.2333 20.9167 16 20.75 15.8C20.5833 15.6 20.375 15.475 20.125 15.425L17.15 14.775C16.9333 14.725 16.7167 14.7375 16.5 14.8125C16.2833 14.8875 16.0917 15.0167 15.925 15.2L13.55 17.65C12.0833 16.85 10.7708 15.875 9.6125 14.725C8.45417 13.575 7.40833 12.225 6.475 10.675L8.975 8.15C9.10833 8.01667 9.19583 7.85417 9.2375 7.6625C9.27917 7.47083 9.28333 7.25833 9.25 7.025L8.575 3.875C8.525 3.60833 8.4125 3.39583 8.2375 3.2375C8.0625 3.07917 7.85833 3 7.625 3H4.125C3.80833 3 3.54167 3.10833 3.325 3.325C3.10833 3.54167 3 3.80833 3 4.125C3 6.15833 3.5 8.17917 4.5 10.1875C5.5 12.1958 6.8 14 8.4 15.6C10 17.2 11.8042 18.5 13.8125 19.5Z" fill="#415174"/>
</svg>
