<svg width="24" height="24" viewBox="0 0 24 24" fill="none" xmlns="http://www.w3.org/2000/svg">
<path d="M6.5 19C6.1 19 5.75 18.85 5.45 18.55C5.15 18.25 5 17.9 5 17.5V3.5C5 3.1 5.15 2.75 5.45 2.45C5.75 2.15 6.1 2 6.5 2H20.5C20.9 2 21.25 2.15 21.55 2.45C21.85 2.75 22 3.1 22 3.5V17.5C22 17.9 21.85 18.25 21.55 18.55C21.25 18.85 20.9 19 20.5 19H6.5ZM6.5 17.5H20.5V3.5H6.5V17.5ZM3.5 22C3.1 22 2.75 21.85 2.45 21.55C2.15 21.25 2 20.9 2 20.5V5H3.5V20.5H19V22H3.5Z" fill="#415174"/>
<path fill-rule="evenodd" clip-rule="evenodd" d="M15.5363 13.4637L14.4757 12.4031L12.9598 13.919C12.2271 14.6516 11.0393 14.6516 10.3066 13.919C9.57401 13.1863 9.57401 11.9985 10.3066 11.2658L11.8225 9.74996L10.7619 8.6893L9.24599 10.2052C7.92756 11.5236 7.92756 13.6612 9.24599 14.9796C10.5644 16.2981 12.702 16.2981 14.0204 14.9796L18.1128 10.8872C19.4312 9.56882 19.4312 7.43123 18.1128 6.1128C16.7944 4.79438 14.6568 4.79438 13.3384 6.11281L11.8225 7.62864L12.8832 8.6893L14.399 7.17347C15.1317 6.44082 16.3195 6.44082 17.0522 7.17346C17.7848 7.9061 17.7848 9.09395 17.0522 9.82659L15.5363 11.3424L16.5969 12.403L15.5363 13.4637ZM12.5045 12.7817L15.9149 9.37136L14.8542 8.3107L11.4439 11.721L12.5045 12.7817Z" fill="#415174"/>
</svg>
