<svg width="24" height="24" viewBox="0 0 24 24" fill="none" xmlns="http://www.w3.org/2000/svg">
<path d="M14.25 16H15.75V13.75H18V12.25H15.75V10H14.25V12.25H12V13.75H14.25V16ZM3.52502 20C3.12502 20 2.77502 19.8458 2.47502 19.5375C2.17502 19.2292 2.02502 18.8833 2.02502 18.5V5.5C2.02502 5.11667 2.17502 4.77083 2.47502 4.4625C2.77502 4.15417 3.12502 4 3.52502 4H10.525L12.025 5.5H20.525C20.9084 5.5 21.2542 5.65417 21.5625 5.9625C21.8709 6.27083 22.025 6.61667 22.025 7V18.5C22.025 18.8833 21.8709 19.2292 21.5625 19.5375C21.2542 19.8458 20.9084 20 20.525 20H3.52502ZM3.52502 5.5V18.5H20.525V7H11.4L9.90002 5.5H3.52502Z" fill="#415174"/>
</svg>
