<svg width="24" height="24" viewBox="0 0 24 24" fill="none" xmlns="http://www.w3.org/2000/svg">
<path d="M9.025 16.525L12 13.5L15 16.525L16.175 15.325L13.2 12.3L16.175 9.275L15 8.075L12 11.1L9.025 8.075L7.825 9.275L10.825 12.3L7.825 15.325L9.025 16.525ZM6.525 21C6.125 21 5.775 20.85 5.475 20.55C5.175 20.25 5.025 19.9 5.025 19.5V5.25H4V3.75H8.7V3H15.3V3.75H20V5.25H18.975V19.5C18.975 19.9 18.825 20.25 18.525 20.55C18.225 20.85 17.875 21 17.475 21H6.525ZM17.475 5.25H6.525V19.5H17.475V5.25Z" fill="#415174"/>
</svg>
