<svg width="24" height="24" viewBox="0 0 24 24" fill="none" xmlns="http://www.w3.org/2000/svg">
<path d="M12 22C10.6167 22 9.31667 21.7375 8.1 21.2125C6.88333 20.6875 5.825 19.975 4.925 19.075C4.025 18.175 3.3125 17.1167 2.7875 15.9C2.2625 14.6833 2 13.3833 2 12C2 10.6167 2.2625 9.31667 2.7875 8.1C3.3125 6.88333 4.025 5.825 4.925 4.925C5.825 4.025 6.88333 3.3125 8.1 2.7875C9.31667 2.2625 10.6167 2 12 2C13.3833 2 14.6833 2.2625 15.9 2.7875C17.1167 3.3125 18.175 4.025 19.075 4.925C19.975 5.825 20.6875 6.88333 21.2125 8.1C21.7375 9.31667 22 10.6167 22 12V13.325C22 14.2583 21.6708 15.0458 21.0125 15.6875C20.3542 16.3292 19.55 16.65 18.6 16.65C18 16.65 17.4333 16.5042 16.9 16.2125C16.3667 15.9208 15.9583 15.5083 15.675 14.975C15.2417 15.5417 14.7 15.9625 14.05 16.2375C13.4 16.5125 12.7167 16.65 12 16.65C10.7 16.65 9.59583 16.2 8.6875 15.3C7.77917 14.4 7.325 13.3 7.325 12C7.325 10.7 7.77917 9.59167 8.6875 8.675C9.59583 7.75833 10.7 7.3 12 7.3C13.3 7.3 14.4042 7.75833 15.3125 8.675C16.2208 9.59167 16.675 10.7 16.675 12V13.325C16.675 13.8417 16.8625 14.275 17.2375 14.625C17.6125 14.975 18.0667 15.15 18.6 15.15C19.1167 15.15 19.5625 14.975 19.9375 14.625C20.3125 14.275 20.5 13.8417 20.5 13.325V12C20.5 9.63333 19.675 7.625 18.025 5.975C16.375 4.325 14.3667 3.5 12 3.5C9.63333 3.5 7.625 4.325 5.975 5.975C4.325 7.625 3.5 9.63333 3.5 12C3.5 14.3667 4.325 16.375 5.975 18.025C7.625 19.675 9.63333 20.5 12 20.5H17.35V22H12ZM12 15.15C12.8833 15.15 13.6333 14.8458 14.25 14.2375C14.8667 13.6292 15.175 12.8833 15.175 12C15.175 11.1 14.8667 10.3417 14.25 9.725C13.6333 9.10833 12.8833 8.8 12 8.8C11.1167 8.8 10.3667 9.10833 9.75 9.725C9.13333 10.3417 8.825 11.1 8.825 12C8.825 12.8833 9.13333 13.6292 9.75 14.2375C10.3667 14.8458 11.1167 15.15 12 15.15Z" fill="#415174"/>
</svg>
