<svg width="32" height="32" viewBox="0 0 32 32" fill="none" xmlns="http://www.w3.org/2000/svg">
<path d="M19.6667 15.9667C18.2 15.9667 17 15.5 16.0667 14.5667C15.1333 13.6333 14.6667 12.4333 14.6667 10.9667C14.6667 9.50001 15.1333 8.30001 16.0667 7.36667C17 6.43334 18.2 5.96667 19.6667 5.96667C21.1333 5.96667 22.3333 6.43334 23.2667 7.36667C24.2 8.30001 24.6667 9.50001 24.6667 10.9667C24.6667 12.4333 24.2 13.6333 23.2667 14.5667C22.3333 15.5 21.1333 15.9667 19.6667 15.9667ZM11 26.6667C9.89543 26.6667 9 25.7712 9 24.6667V23.5333C9 22.6889 9.21111 21.9667 9.63333 21.3667C10.0556 20.7667 10.6 20.3111 11.2667 20C12.7556 19.3333 14.1833 18.8333 15.55 18.5C16.9167 18.1667 18.2889 18 19.6667 18C21.0444 18 22.4111 18.1722 23.7667 18.5167C25.1222 18.8611 26.5436 19.3577 28.0307 20.0065C28.7263 20.3204 29.2839 20.7756 29.7037 21.372C30.1235 21.9685 30.3333 22.6889 30.3333 23.5333V24.6667C30.3333 25.7712 29.4379 26.6667 28.3333 26.6667H11ZM11 23.5333C11 24.1593 11.5074 24.6667 12.1333 24.6667H27.2C27.8259 24.6667 28.3333 24.1593 28.3333 23.5333C28.3333 23.1778 28.2278 22.8389 28.0167 22.5167C27.8056 22.1945 27.5444 21.9556 27.2333 21.8C25.8111 21.1111 24.5111 20.6389 23.3333 20.3833C22.1556 20.1278 20.9333 20 19.6667 20C18.4 20 17.1667 20.1278 15.9667 20.3833C14.7667 20.6389 13.4667 21.1111 12.0667 21.8C11.7556 21.9556 11.5 22.1945 11.3 22.5167C11.1 22.8389 11 23.1778 11 23.5333ZM19.6667 13.9667C20.5333 13.9667 21.25 13.6833 21.8167 13.1167C22.3833 12.55 22.6667 11.8333 22.6667 10.9667C22.6667 10.1 22.3833 9.38334 21.8167 8.81667C21.25 8.25001 20.5333 7.96667 19.6667 7.96667C18.8 7.96667 18.0833 8.25001 17.5167 8.81667C16.95 9.38334 16.6667 10.1 16.6667 10.9667C16.6667 11.8333 16.95 12.55 17.5167 13.1167C18.0833 13.6833 18.8 13.9667 19.6667 13.9667Z" fill="#415174"/>
<path d="M3.858 19.0873L3.84378 19.0938C3.01931 19.4786 2.33855 20.0479 1.81553 20.7912C1.25749 21.5842 1 22.515 1 23.5333V24.6667C1 26.3235 2.34315 27.6667 4 27.6667H21.3333C22.9902 27.6667 24.3333 26.3235 24.3333 24.6667V23.5333C24.3333 22.5164 24.0778 21.5869 23.5215 20.7965C22.9939 20.0468 22.2928 19.479 21.442 19.095L21.4421 19.0949L21.4306 19.0899C19.9014 18.4228 18.4286 17.9072 17.0129 17.5475C15.5781 17.1829 14.1288 17 12.6667 17C11.2074 17 9.75564 17.1766 8.31304 17.5285C6.87904 17.8782 5.39369 18.3997 3.858 19.0873ZM8.35956 15.2738C9.5021 16.4163 10.9671 16.9667 12.6667 16.9667C14.3663 16.9667 15.8312 16.4163 16.9738 15.2738C18.1163 14.1312 18.6667 12.6663 18.6667 10.9667C18.6667 9.26709 18.1163 7.8021 16.9738 6.65957C15.8312 5.51703 14.3663 4.96667 12.6667 4.96667C10.9671 4.96667 9.5021 5.51703 8.35956 6.65957C7.21702 7.8021 6.66667 9.26709 6.66667 10.9667C6.66667 12.6663 7.21702 14.1312 8.35956 15.2738ZM5.13333 23.6667C5.0597 23.6667 5 23.607 5 23.5333C5 23.3767 5.04109 23.2189 5.14964 23.044C5.26052 22.8654 5.38168 22.7611 5.51156 22.6956C6.85513 22.0348 8.07504 21.5957 9.17496 21.3614C10.3043 21.1209 11.4677 21 12.6667 21C13.8657 21 15.0166 21.1209 16.1213 21.3606C17.2002 21.5947 18.4218 22.0342 19.7907 22.6967C19.9256 22.7652 20.0567 22.8762 20.1802 23.0647C20.2939 23.2382 20.3333 23.3888 20.3333 23.5333C20.3333 23.607 20.2736 23.6667 20.2 23.6667H5.13333ZM14.1096 12.4096C13.7466 12.7725 13.292 12.9667 12.6667 12.9667C12.0414 12.9667 11.5867 12.7725 11.2238 12.4096C10.8609 12.0467 10.6667 11.592 10.6667 10.9667C10.6667 10.3414 10.8609 9.8867 11.2238 9.52378C11.5867 9.16087 12.0414 8.96667 12.6667 8.96667C13.292 8.96667 13.7466 9.16087 14.1096 9.52378C14.4725 9.8867 14.6667 10.3414 14.6667 10.9667C14.6667 11.592 14.4725 12.0467 14.1096 12.4096Z" fill="#415174" stroke="#F7F8FA" stroke-width="2" stroke-linejoin="round"/>
<path d="M13 21L6.5 22.5L5.5 24.5C10 24.1667 19.1 23.5 19.5 23.5C19.9 23.5 15.3333 21.8333 13 21Z" fill="#F7F8FA"/>
</svg>
