<svg width="34" height="32" viewBox="0 0 34 32" fill="none" xmlns="http://www.w3.org/2000/svg">
<path d="M9 15.7295C7.9 15.7295 7 15.3688 6.3 14.6473C5.6 13.9259 5.25 12.9984 5.25 11.8647C5.25 10.7311 5.6 9.80354 6.3 9.08213C7 8.36071 7.9 8 9 8C10.1 8 11 8.36071 11.7 9.08213C12.4 9.80354 12.75 10.7311 12.75 11.8647C12.75 12.9984 12.4 13.9259 11.7 14.6473C11 15.3688 10.1 15.7295 9 15.7295ZM1 24V21.5781C1 20.9254 1.15833 20.3672 1.475 19.9034C1.79167 19.4396 2.2 19.0875 2.7 18.847C3.81667 18.3317 4.8875 17.9452 5.9125 17.6876C6.9375 17.43 7.96667 17.3011 9 17.3011C10.0333 17.3011 11.0583 17.4342 12.075 17.7005C13.0917 17.9667 14.1577 18.3506 15.273 18.852C15.7947 19.0947 16.213 19.4465 16.5278 19.9075C16.8426 20.3685 17 20.9254 17 21.5781V24H1ZM2.5 22.4541H15.5V21.5781C15.5 21.3033 15.4208 21.0413 15.2625 20.7923C15.1042 20.5432 14.9083 20.3586 14.675 20.2383C13.6083 19.7059 12.6333 19.3408 11.75 19.1433C10.8667 18.9458 9.95 18.847 9 18.847C8.05 18.847 7.125 18.9458 6.225 19.1433C5.325 19.3408 4.35 19.7059 3.3 20.2383C3.06667 20.3586 2.875 20.5432 2.725 20.7923C2.575 21.0413 2.5 21.3033 2.5 21.5781V22.4541ZM9 14.1836C9.65 14.1836 10.1875 13.9646 10.6125 13.5266C11.0375 13.0886 11.25 12.5346 11.25 11.8647C11.25 11.1948 11.0375 10.6409 10.6125 10.2029C10.1875 9.7649 9.65 9.54589 9 9.54589C8.35 9.54589 7.8125 9.7649 7.3875 10.2029C6.9625 10.6409 6.75 11.1948 6.75 11.8647C6.75 12.5346 6.9625 13.0886 7.3875 13.5266C7.8125 13.9646 8.35 14.1836 9 14.1836Z" fill="#415174" stroke="#415174" stroke-width="0.5"/>
<path d="M25 15.7295C23.9 15.7295 23 15.3688 22.3 14.6473C21.6 13.9259 21.25 12.9984 21.25 11.8647C21.25 10.7311 21.6 9.80354 22.3 9.08213C23 8.36071 23.9 8 25 8C26.1 8 27 8.36071 27.7 9.08213C28.4 9.80354 28.75 10.7311 28.75 11.8647C28.75 12.9984 28.4 13.9259 27.7 14.6473C27 15.3688 26.1 15.7295 25 15.7295ZM17 24V21.5781C17 20.9254 17.1583 20.3672 17.475 19.9034C17.7917 19.4396 18.2 19.0875 18.7 18.847C19.8167 18.3317 20.8875 17.9452 21.9125 17.6876C22.9375 17.43 23.9667 17.3011 25 17.3011C26.0333 17.3011 27.0583 17.4342 28.075 17.7005C29.0917 17.9667 30.1577 18.3506 31.273 18.852C31.7947 19.0947 32.213 19.4465 32.5278 19.9075C32.8426 20.3685 33 20.9254 33 21.5781V24H17ZM18.5 22.4541H31.5V21.5781C31.5 21.3033 31.4208 21.0413 31.2625 20.7923C31.1042 20.5432 30.9083 20.3586 30.675 20.2383C29.6083 19.7059 28.6333 19.3408 27.75 19.1433C26.8667 18.9458 25.95 18.847 25 18.847C24.05 18.847 23.125 18.9458 22.225 19.1433C21.325 19.3408 20.35 19.7059 19.3 20.2383C19.0667 20.3586 18.875 20.5432 18.725 20.7923C18.575 21.0413 18.5 21.3033 18.5 21.5781V22.4541ZM25 14.1836C25.65 14.1836 26.1875 13.9646 26.6125 13.5266C27.0375 13.0886 27.25 12.5346 27.25 11.8647C27.25 11.1948 27.0375 10.6409 26.6125 10.2029C26.1875 9.7649 25.65 9.54589 25 9.54589C24.35 9.54589 23.8125 9.7649 23.3875 10.2029C22.9625 10.6409 22.75 11.1948 22.75 11.8647C22.75 12.5346 22.9625 13.0886 23.3875 13.5266C23.8125 13.9646 24.35 14.1836 25 14.1836Z" fill="#415174" stroke="#415174" stroke-width="0.5"/>
<path d="M10 26V25V23.1836C10 22.5264 10.1619 21.9033 10.5304 21.3636C10.8656 20.8728 11.3064 20.4914 11.8416 20.2341L11.8488 20.2306L11.856 20.2273C12.741 19.8189 13.6028 19.5065 14.4406 19.2959C14.5857 19.2594 14.7311 19.226 14.8767 19.1957C14.6567 19.0512 14.4497 18.8802 14.2573 18.6819C13.5276 17.9298 13.1875 16.9727 13.1875 15.8986C13.1875 14.8244 13.5276 13.8673 14.2573 13.1152M10 26L14.2573 13.1152M10 26H11H23H24V25V23.1836C24 22.5277 23.8395 21.9053 23.4717 21.3667C23.1309 20.8677 22.6756 20.4877 22.1265 20.2323L22.1265 20.2322L22.1148 20.227C21.2357 19.8317 20.3836 19.5238 19.5596 19.308C19.4114 19.2692 19.2629 19.2338 19.1141 19.2017C19.3376 19.056 19.5476 18.8829 19.7427 18.6819C20.4724 17.9298 20.8125 16.9727 20.8125 15.8986C20.8125 14.8244 20.4724 13.8673 19.7427 13.1152C19.0106 12.3607 18.0672 12 17 12C15.9328 12 14.9894 12.3607 14.2573 13.1152M10 26L14.2573 13.1152M20.3172 22.8406H13.6575C14.1971 22.5978 14.6884 22.4318 15.1331 22.3342C15.7356 22.202 16.3574 22.1353 17 22.1353C17.6427 22.1353 18.2569 22.202 18.8443 22.3334C19.2802 22.4309 19.7704 22.597 20.3172 22.8406ZM17.4917 16.4486C17.3745 16.5693 17.2367 16.6377 17 16.6377C16.7633 16.6377 16.6255 16.5693 16.5083 16.4486C16.3891 16.3257 16.3125 16.1687 16.3125 15.8986C16.3125 15.6284 16.3891 15.4714 16.5083 15.3485C16.6255 15.2278 16.7633 15.1594 17 15.1594C17.2367 15.1594 17.3745 15.2278 17.4917 15.3485C17.6109 15.4714 17.6875 15.6284 17.6875 15.8986C17.6875 16.1687 17.6109 16.3257 17.4917 16.4486Z" fill="#415174" stroke="#F7F8FA" stroke-width="2"/>
<path d="M17 18.7971C16.175 18.7971 15.5 18.5266 14.975 17.9855C14.45 17.4444 14.1875 16.7488 14.1875 15.8986C14.1875 15.0483 14.45 14.3527 14.975 13.8116C15.5 13.2705 16.175 13 17 13C17.825 13 18.5 13.2705 19.025 13.8116C19.55 14.3527 19.8125 15.0483 19.8125 15.8986C19.8125 16.7488 19.55 17.4444 19.025 17.9855C18.5 18.5266 17.825 18.7971 17 18.7971ZM11 25V23.1836C11 22.694 11.1187 22.2754 11.3563 21.9275C11.5938 21.5797 11.9 21.3156 12.275 21.1353C13.1125 20.7488 13.9156 20.4589 14.6844 20.2657C15.4531 20.0725 16.225 19.9758 17 19.9758C17.775 19.9758 18.5438 20.0757 19.3063 20.2754C20.0688 20.475 20.8683 20.7629 21.7048 21.139C22.096 21.321 22.4097 21.5849 22.6458 21.9306C22.8819 22.2764 23 22.694 23 23.1836V25H11ZM12.125 23.8406H21.875V23.1836C21.875 22.9775 21.8156 22.781 21.6969 22.5942C21.5781 22.4074 21.4313 22.2689 21.2563 22.1787C20.4563 21.7794 19.725 21.5056 19.0625 21.3575C18.4 21.2093 17.7125 21.1353 17 21.1353C16.2875 21.1353 15.5938 21.2093 14.9188 21.3575C14.2438 21.5056 13.5125 21.7794 12.725 22.1787C12.55 22.2689 12.4062 22.4074 12.2938 22.5942C12.1813 22.781 12.125 22.9775 12.125 23.1836V23.8406ZM17 17.6377C17.4875 17.6377 17.8906 17.4734 18.2094 17.1449C18.5281 16.8164 18.6875 16.401 18.6875 15.8986C18.6875 15.3961 18.5281 14.9807 18.2094 14.6522C17.8906 14.3237 17.4875 14.1594 17 14.1594C16.5125 14.1594 16.1094 14.3237 15.7906 14.6522C15.4719 14.9807 15.3125 15.3961 15.3125 15.8986C15.3125 16.401 15.4719 16.8164 15.7906 17.1449C16.1094 17.4734 16.5125 17.6377 17 17.6377Z" fill="#415174" stroke="#415174" stroke-width="0.5"/>
</svg>
