<svg width="32" height="32" viewBox="0 0 32 32" fill="none" xmlns="http://www.w3.org/2000/svg">
<path fill-rule="evenodd" clip-rule="evenodd" d="M3 11C3 9.89543 3.89543 9 5 9H27C28.1046 9 29 9.89543 29 11V15C29 16.1046 28.1046 17 27 17H5C3.89543 17 3 16.1046 3 15V11ZM27 11H5V15H27V11Z" fill="#415174"/>
<path fill-rule="evenodd" clip-rule="evenodd" d="M6 15C6.55228 15 7 15.4477 7 16V25H25V16C25 15.4477 25.4477 15 26 15C26.5523 15 27 15.4477 27 16V25C27 25.5304 26.7893 26.0391 26.4142 26.4142C26.0391 26.7893 25.5304 27 25 27H7C6.46957 27 5.96086 26.7893 5.58579 26.4142C5.21071 26.0391 5 25.5304 5 25V16C5 15.4477 5.44772 15 6 15Z" fill="#415174"/>
<path fill-rule="evenodd" clip-rule="evenodd" d="M16 9C16.5523 9 17 9.44772 17 10V26C17 26.5523 16.5523 27 16 27C15.4477 27 15 26.5523 15 26V10C15 9.44772 15.4477 9 16 9Z" fill="#415174"/>
<path fill-rule="evenodd" clip-rule="evenodd" d="M18.1213 5.04295C17.9267 5.24002 17.7231 5.60246 17.5449 6.13882C17.3718 6.65957 17.25 7.25911 17.1665 7.84437C17.1096 8.24312 17.0721 8.62397 17.0473 8.95271C17.376 8.92793 17.7569 8.89035 18.1556 8.83346C18.7409 8.74996 19.3404 8.62821 19.8612 8.45513C20.3976 8.27686 20.76 8.07328 20.9571 7.8787C21.3321 7.50281 21.5427 6.99351 21.5427 6.46249C21.5427 5.93068 21.3314 5.42065 20.9554 5.0446C20.5793 4.66855 20.0693 4.45729 19.5375 4.45729C19.0065 4.45729 18.4972 4.66793 18.1213 5.04295ZM21.6625 8.58749L22.3696 9.2946C23.1207 8.54348 23.5427 7.52474 23.5427 6.46249C23.5427 5.40025 23.1207 4.38151 22.3696 3.63039C21.6185 2.87927 20.5997 2.45729 19.5375 2.45729C18.4753 2.45729 17.4565 2.87927 16.7054 3.63039L16.7023 3.63351C16.191 4.14927 15.8655 4.85043 15.6469 5.50804C15.4227 6.1826 15.2796 6.90963 15.1866 7.56187C15.093 8.21807 15.0466 8.82324 15.0235 9.26308C15.0118 9.48376 15.006 9.66469 15.003 9.79189C15.0015 9.85552 15.0008 9.90583 15.0004 9.94107L15.0001 9.98245L15 9.99428L15 9.99791L15 9.99915C15 9.99934 15 9.99999 16 9.99999L15 9.99915C15 10.2644 15.1054 10.5196 15.2929 10.7071C15.4804 10.8946 15.7348 11 16 11V9.99999C16 11 15.9998 11 16 11L16.0021 11L16.0057 11L16.0175 10.9999L16.0589 10.9996C16.0942 10.9992 16.1445 10.9984 16.2081 10.997C16.3353 10.994 16.5162 10.9882 16.7369 10.9765C17.1768 10.9534 17.7819 10.907 18.4381 10.8134C19.0904 10.7203 19.8174 10.5772 20.492 10.3531C21.1496 10.1345 21.8507 9.80895 22.3665 9.29771L21.6625 8.58749Z" fill="#415174"/>
<path fill-rule="evenodd" clip-rule="evenodd" d="M9.63037 3.63039C10.3815 2.87927 11.4002 2.45729 12.4625 2.45729C13.5247 2.45729 14.5435 2.87927 15.2946 3.63039L15.2977 3.6335C15.8089 4.14927 16.1345 4.85043 16.353 5.50804C16.5772 6.1826 16.7203 6.90963 16.8134 7.56187C16.907 8.21807 16.9534 8.82324 16.9765 9.26308C16.9881 9.48376 16.994 9.66469 16.997 9.79189C16.9984 9.85552 16.9992 9.90583 16.9996 9.94107L16.9999 9.98245L17 9.99428L17 9.99791L17 9.99915C17 9.99934 17 9.99999 16 9.99999C16 11 15.9998 11 15.9996 11L15.9979 11L15.9943 11L15.9824 10.9999L15.9411 10.9996C15.9058 10.9992 15.8555 10.9984 15.7919 10.997C15.6647 10.994 15.4837 10.9882 15.2631 10.9765C14.8232 10.9534 14.2181 10.907 13.5619 10.8134C12.9096 10.7203 12.1826 10.5772 11.508 10.3531C10.8504 10.1345 10.1493 9.80895 9.63349 9.29771L9.63037 9.2946C8.87925 8.54348 8.45728 7.52474 8.45728 6.46249C8.45728 5.40025 8.87925 4.38151 9.63037 3.63039ZM16 9.99999L15.9996 11C16.2648 11 16.5195 10.8946 16.7071 10.7071C16.8946 10.5196 17 10.2644 17 9.99915L16 9.99999ZM14.9527 8.95271C14.9279 8.62397 14.8903 8.24312 14.8334 7.84437C14.7499 7.25911 14.6282 6.65957 14.4551 6.13882C14.2768 5.60243 14.0733 5.23998 13.8787 5.04292C13.5028 4.66792 12.9935 4.45729 12.4625 4.45729C11.9307 4.45729 11.4206 4.66855 11.0446 5.0446C10.6685 5.42065 10.4573 5.93068 10.4573 6.46249C10.4573 6.99351 10.6679 7.50281 11.0429 7.8787C11.24 8.07328 11.6024 8.27686 12.1388 8.45513C12.6596 8.62821 13.2591 8.74996 13.8444 8.83346C14.2431 8.89035 14.624 8.92793 14.9527 8.95271Z" fill="#415174"/>
</svg>
