<svg width="24" height="24" viewBox="0 0 24 24" fill="none" xmlns="http://www.w3.org/2000/svg">
<path d="M0 18V16.675C0 16.025 0.35 15.5 1.05 15.1C1.75 14.7 2.65 14.5 3.75 14.5C3.96667 14.5 4.16667 14.5042 4.35 14.5125C4.53333 14.5208 4.71667 14.5417 4.9 14.575C4.76667 14.8583 4.66667 15.1458 4.6 15.4375C4.53333 15.7292 4.5 16.0417 4.5 16.375V18H0ZM6 18V16.375C6 15.2917 6.55417 14.4167 7.6625 13.75C8.77083 13.0833 10.2167 12.75 12 12.75C13.8 12.75 15.25 13.0833 16.35 13.75C17.45 14.4167 18 15.2917 18 16.375V18H6ZM19.5 18V16.375C19.5 16.0417 19.4708 15.7292 19.4125 15.4375C19.3542 15.1458 19.2583 14.8583 19.125 14.575C19.3083 14.5417 19.4917 14.5208 19.675 14.5125C19.8583 14.5042 20.05 14.5 20.25 14.5C21.3833 14.5 22.2917 14.7 22.975 15.1C23.6583 15.5 24 16.025 24 16.675V18H19.5ZM12 14.25C10.6667 14.25 9.58333 14.45 8.75 14.85C7.91667 15.25 7.5 15.7583 7.5 16.375V16.5H16.5V16.35C16.5 15.75 16.0875 15.25 15.2625 14.85C14.4375 14.45 13.35 14.25 12 14.25ZM3.75 13.75C3.26667 13.75 2.85417 13.5792 2.5125 13.2375C2.17083 12.8958 2 12.4833 2 12C2 11.5167 2.17083 11.1042 2.5125 10.7625C2.85417 10.4208 3.26667 10.25 3.75 10.25C4.23333 10.25 4.64583 10.4208 4.9875 10.7625C5.32917 11.1042 5.5 11.5167 5.5 12C5.5 12.4833 5.32917 12.8958 4.9875 13.2375C4.64583 13.5792 4.23333 13.75 3.75 13.75ZM20.25 13.75C19.7667 13.75 19.3542 13.5792 19.0125 13.2375C18.6708 12.8958 18.5 12.4833 18.5 12C18.5 11.5167 18.6708 11.1042 19.0125 10.7625C19.3542 10.4208 19.7667 10.25 20.25 10.25C20.7333 10.25 21.1458 10.4208 21.4875 10.7625C21.8292 11.1042 22 11.5167 22 12C22 12.4833 21.8292 12.8958 21.4875 13.2375C21.1458 13.5792 20.7333 13.75 20.25 13.75ZM12 12C11.1667 12 10.4583 11.7083 9.875 11.125C9.29167 10.5417 9 9.83333 9 9C9 8.15 9.29167 7.4375 9.875 6.8625C10.4583 6.2875 11.1667 6 12 6C12.85 6 13.5625 6.2875 14.1375 6.8625C14.7125 7.4375 15 8.15 15 9C15 9.83333 14.7125 10.5417 14.1375 11.125C13.5625 11.7083 12.85 12 12 12ZM12 7.5C11.5833 7.5 11.2292 7.64167 10.9375 7.925C10.6458 8.20833 10.5 8.56667 10.5 9C10.5 9.41667 10.6458 9.77083 10.9375 10.0625C11.2292 10.3542 11.5833 10.5 12 10.5C12.4333 10.5 12.7917 10.3542 13.075 10.0625C13.3583 9.77083 13.5 9.41667 13.5 9C13.5 8.56667 13.3583 8.20833 13.075 7.925C12.7917 7.64167 12.4333 7.5 12 7.5Z" fill="#415174"/>
</svg>
