<svg width="24" height="24" viewBox="0 0 24 24" fill="none" xmlns="http://www.w3.org/2000/svg">
<path fill-rule="evenodd" clip-rule="evenodd" d="M10.975 20.05L12 20.975L13.025 20.05C14.7917 18.4334 16.25 17.0375 17.4 15.8625C18.55 14.6875 19.4667 13.6375 20.15 12.7125C20.8333 11.7875 21.3125 10.95 21.5875 10.2C21.8625 9.45002 22 8.69169 22 7.92502C22 6.42502 21.4958 5.17086 20.4875 4.16252C19.4792 3.15419 18.2333 2.65002 16.75 2.65002C15.85 2.65002 15.0083 2.86252 14.225 3.28752C13.4417 3.71252 12.7 4.37502 12 5.27502C11.4 4.42502 10.6958 3.77502 9.8875 3.32502C9.07917 2.87502 8.2 2.65002 7.25 2.65002C5.76667 2.65002 4.52083 3.15419 3.5125 4.16252C2.50417 5.17086 2 6.42502 2 7.92502C2 8.69169 2.1375 9.45002 2.4125 10.2C2.6875 10.95 3.16667 11.7875 3.85 12.7125C4.53333 13.6375 5.45 14.6875 6.6 15.8625C7.75 17.0375 9.20833 18.4334 10.975 20.05Z" fill="#415174"/>
</svg>
