<svg width="24" height="24" viewBox="0 0 24 24" fill="none" xmlns="http://www.w3.org/2000/svg">
<path d="M12 20.975L10.975 20.05C9.20833 18.4334 7.75 17.0375 6.6 15.8625C5.45 14.6875 4.53333 13.6375 3.85 12.7125C3.16667 11.7875 2.6875 10.95 2.4125 10.2C2.1375 9.45002 2 8.69169 2 7.92502C2 6.42502 2.50417 5.17086 3.5125 4.16252C4.52083 3.15419 5.76667 2.65002 7.25 2.65002C8.2 2.65002 9.07917 2.87502 9.8875 3.32502C10.6958 3.77502 11.4 4.42502 12 5.27502C12.7 4.37502 13.4417 3.71252 14.225 3.28752C15.0083 2.86252 15.85 2.65002 16.75 2.65002C18.2333 2.65002 19.4792 3.15419 20.4875 4.16252C21.4958 5.17086 22 6.42502 22 7.92502C22 8.69169 21.8625 9.45002 21.5875 10.2C21.3125 10.95 20.8333 11.7875 20.15 12.7125C19.4667 13.6375 18.55 14.6875 17.4 15.8625C16.25 17.0375 14.7917 18.4334 13.025 20.05L12 20.975ZM12 19C13.6833 17.45 15.0708 16.1209 16.1625 15.0125C17.2542 13.9042 18.1208 12.9334 18.7625 12.1C19.4042 11.2667 19.8542 10.525 20.1125 9.87502C20.3708 9.22502 20.5 8.57502 20.5 7.92502C20.5 6.82502 20.15 5.92086 19.45 5.21252C18.75 4.50419 17.85 4.15002 16.75 4.15002C15.9 4.15002 15.1083 4.41252 14.375 4.93752C13.6417 5.46252 13.05 6.20002 12.6 7.15002H11.375C10.9417 6.21669 10.3583 5.48336 9.625 4.95002C8.89167 4.41669 8.1 4.15002 7.25 4.15002C6.15 4.15002 5.25 4.50419 4.55 5.21252C3.85 5.92086 3.5 6.82502 3.5 7.92502C3.5 8.57502 3.62917 9.22919 3.8875 9.88752C4.14583 10.5459 4.59583 11.2959 5.2375 12.1375C5.87917 12.9792 6.75 13.95 7.85 15.05C8.95 16.15 10.3333 17.4667 12 19Z" fill="#415174"/>
</svg>
