<svg width="24" height="24" viewBox="0 0 24 24" fill="none" xmlns="http://www.w3.org/2000/svg">
<path d="M11.25 17H7C5.61667 17 4.4375 16.5125 3.4625 15.5375C2.4875 14.5625 2 13.3833 2 12C2 10.6167 2.4875 9.4375 3.4625 8.4625C4.4375 7.4875 5.61667 7 7 7H11.25V8.5H7C6.02778 8.5 5.20139 8.83971 4.52082 9.51913C3.84027 10.1985 3.5 11.0235 3.5 11.9941C3.5 12.9647 3.84027 13.7917 4.52082 14.475C5.20139 15.1583 6.02778 15.5 7 15.5H11.25V17ZM8.125 12.75V11.25H15.875V12.75H8.125ZM12.75 17V15.5H17C17.9722 15.5 18.7986 15.1603 19.4792 14.4809C20.1597 13.8015 20.5 12.9765 20.5 12.0059C20.5 11.0353 20.1597 10.2083 19.4792 9.525C18.7986 8.84167 17.9722 8.5 17 8.5H12.75V7H17C18.3833 7 19.5625 7.4875 20.5375 8.4625C21.5125 9.4375 22 10.6167 22 12C22 13.3833 21.5125 14.5625 20.5375 15.5375C19.5625 16.5125 18.3833 17 17 17H12.75Z" fill="#415174"/>
</svg>
