<svg width="24" height="24" viewBox="0 0 24 24" fill="none" xmlns="http://www.w3.org/2000/svg">
<path d="M5.5 23C5.0875 23 4.73438 22.8531 4.44063 22.5594C4.14688 22.2656 4 21.9125 4 21.5V10.65C4 10.2375 4.14688 9.88438 4.44063 9.59063C4.73438 9.29688 5.0875 9.15 5.5 9.15H7.25V6.75C7.25 5.43583 7.71338 4.31562 8.64015 3.38937C9.56692 2.46312 10.6877 2 12.0026 2C13.3175 2 14.4375 2.46312 15.3625 3.38937C16.2875 4.31562 16.75 5.43583 16.75 6.75V9.15H18.5C18.9125 9.15 19.2656 9.29688 19.5594 9.59063C19.8531 9.88438 20 10.2375 20 10.65V21.5C20 21.9125 19.8531 22.2656 19.5594 22.5594C19.2656 22.8531 18.9125 23 18.5 23H5.5ZM5.5 21.5H18.5V10.65H5.5V21.5ZM12.0042 18C12.5347 18 12.9875 17.8164 13.3625 17.4492C13.7375 17.082 13.925 16.6406 13.925 16.125C13.925 15.625 13.7361 15.1708 13.3583 14.7625C12.9805 14.3542 12.5263 14.15 11.9958 14.15C11.4653 14.15 11.0125 14.3542 10.6375 14.7625C10.2625 15.1708 10.075 15.6292 10.075 16.1375C10.075 16.6458 10.2639 17.0833 10.6417 17.45C11.0195 17.8167 11.4737 18 12.0042 18ZM8.75 9.15H15.25V6.75C15.25 5.84722 14.9343 5.07986 14.3029 4.44793C13.6716 3.81598 12.9049 3.5 12.003 3.5C11.101 3.5 10.3333 3.81598 9.7 4.44793C9.06667 5.07986 8.75 5.84722 8.75 6.75V9.15Z" fill="#415174"/>
<rect x="5" y="10" width="14" height="12" fill="#415174"/>
</svg>
