<svg width="24" height="24" viewBox="0 0 24 24" fill="none" xmlns="http://www.w3.org/2000/svg">
<path d="M10.5 11H13.5V4C13.5 3.58333 13.3562 3.22917 13.0687 2.9375C12.7812 2.64583 12.425 2.5 12 2.5C11.575 2.5 11.2187 2.64375 10.9312 2.93125C10.6437 3.21875 10.5 3.575 10.5 4V11ZM4.49998 15.5H19.5V12.5H4.49998V15.5ZM2.89998 21.5H6.24998V19.25C6.24998 19.0375 6.32227 18.8594 6.46686 18.7156C6.61146 18.5719 6.79062 18.5 7.00436 18.5C7.21811 18.5 7.39582 18.5719 7.53748 18.7156C7.67915 18.8594 7.74998 19.0375 7.74998 19.25V21.5H11.25V19.25C11.25 19.0375 11.3223 18.8594 11.4669 18.7156C11.6115 18.5719 11.7906 18.5 12.0044 18.5C12.2181 18.5 12.3958 18.5719 12.5375 18.7156C12.6791 18.8594 12.75 19.0375 12.75 19.25V21.5H16.25V19.25C16.25 19.0375 16.3223 18.8594 16.4669 18.7156C16.6115 18.5719 16.7906 18.5 17.0044 18.5C17.2181 18.5 17.3958 18.5719 17.5375 18.7156C17.6791 18.8594 17.75 19.0375 17.75 19.25V21.5H21.1L19.85 16.5H4.14998L2.89998 21.5ZM20.45 23H3.54998C2.89998 23 2.37498 22.7417 1.97498 22.225C1.57498 21.7083 1.45832 21.1333 1.62498 20.5L2.99998 15V13C2.99998 12.45 3.19582 11.9792 3.58748 11.5875C3.97915 11.1958 4.44998 11 4.99998 11H8.99998V4C8.99998 3.16667 9.29165 2.45833 9.87498 1.875C10.4583 1.29167 11.1666 1 12 1C12.8333 1 13.5416 1.29167 14.125 1.875C14.7083 2.45833 15 3.16667 15 4V11H19C19.55 11 20.0208 11.1958 20.4125 11.5875C20.8041 11.9792 21 12.45 21 13V15L22.375 20.5C22.5416 21.1333 22.425 21.7083 22.025 22.225C21.625 22.7417 21.1 23 20.45 23Z" fill="#415174"/>
</svg>
