<svg width="24" height="24" viewBox="0 0 24 24" fill="none" xmlns="http://www.w3.org/2000/svg">
<path d="M5.25024 18C4.85024 18 4.50024 17.85 4.20024 17.55C3.90024 17.25 3.75024 16.9 3.75024 16.5V3.5C3.75024 3.1 3.90024 2.75 4.20024 2.45C4.50024 2.15 4.85024 2 5.25024 2H11.3752L12.8752 3.5H21.2502C21.6502 3.5 22.0002 3.65 22.3002 3.95C22.6002 4.25 22.7502 4.6 22.7502 5V16.5C22.7502 16.9 22.6002 17.25 22.3002 17.55C22.0002 17.85 21.6502 18 21.2502 18H5.25024ZM5.25024 16.5H21.2502V5H12.2502L10.7502 3.5H5.25024V16.5ZM20.0002 21H2.25024C1.85024 21 1.50024 20.85 1.20024 20.55C0.900244 20.25 0.750244 19.9 0.750244 19.5V5H2.25024V19.5H20.0002V21ZM8.10024 13.725H18.4002L15.1002 9.325L12.3502 12.975L10.3752 10.825L8.10024 13.725Z" fill="#415174"/>
</svg>
