<svg width="24" height="24" viewBox="0 0 24 24" fill="none" xmlns="http://www.w3.org/2000/svg">
<path d="M12 13.425C11.2833 13.425 10.6833 13.1667 10.2 12.65C9.71667 12.1333 9.475 11.5083 9.475 10.775V4.5C9.475 3.8 9.72083 3.20833 10.2125 2.725C10.7042 2.24167 11.3 2 12 2C12.7 2 13.2958 2.24167 13.7875 2.725C14.2792 3.20833 14.525 3.8 14.525 4.5V10.775C14.525 11.5083 14.2833 12.1333 13.8 12.65C13.3167 13.1667 12.7167 13.425 12 13.425ZM11.25 21V17.6C9.48333 17.4167 8 16.675 6.8 15.375C5.6 14.075 5 12.5417 5 10.775H6.5C6.5 12.2917 7.0375 13.5667 8.1125 14.6C9.1875 15.6333 10.4833 16.15 12 16.15C13.5167 16.15 14.8125 15.6333 15.8875 14.6C16.9625 13.5667 17.5 12.2917 17.5 10.775H19C19 12.5417 18.4 14.075 17.2 15.375C16 16.675 14.5167 17.4167 12.75 17.6V21H11.25ZM12 11.925C12.3 11.925 12.5458 11.8125 12.7375 11.5875C12.9292 11.3625 13.025 11.0917 13.025 10.775V4.5C13.025 4.21667 12.925 3.97917 12.725 3.7875C12.525 3.59583 12.2833 3.5 12 3.5C11.7167 3.5 11.475 3.59583 11.275 3.7875C11.075 3.97917 10.975 4.21667 10.975 4.5V10.775C10.975 11.0917 11.0708 11.3625 11.2625 11.5875C11.4542 11.8125 11.7 11.925 12 11.925Z" fill="#415174"/>
</svg>
