<svg width="24" height="24" viewBox="0 0 24 24" fill="none" xmlns="http://www.w3.org/2000/svg">
<path fill-rule="evenodd" clip-rule="evenodd" d="M16.9393 18L20.4697 21.5303L21.5303 20.4697L2.53033 1.46967L1.46967 2.53033L3 4.06066V13.5C3 14.0523 3.44771 14.5 4 14.5H13.4393L15.4393 16.5L3 16.5V18L16.9393 18ZM11.9393 13L4.5 5.56066V13H11.9393ZM21 16.5V17.9393L19.5607 16.5H21ZM20 14.5H17.5607L16.0607 13H19.5V3.5H6.56066L5.06066 2H20C20.5523 2 21 2.44771 21 3V13.5C21 14.0523 20.5523 14.5 20 14.5ZM3 21L16 21V19.5L3 19.5V21Z" fill="#415174"/>
</svg>
