<svg width="24" height="24" viewBox="0 0 24 24" fill="none" xmlns="http://www.w3.org/2000/svg">
<path d="M4 19V17.5H6.1V9.625C6.1 9.1317 6.17083 8.64588 6.3125 8.16753C6.45417 7.68918 6.65 7.23333 6.9 6.8L8.025 7.925C7.89167 8.20833 7.7875 8.4875 7.7125 8.7625C7.6375 9.0375 7.6 9.325 7.6 9.625V17.5H15.5L1.875 3.875L2.925 2.825L21.075 21L20.025 22.05L16.975 19H4ZM17.925 15.7L16.425 14.2V9.85C16.425 8.6 16.0042 7.54583 15.1625 6.6875C14.3208 5.82917 13.2833 5.4 12.05 5.4C11.4667 5.4 10.9083 5.49583 10.375 5.6875C9.84167 5.87917 9.35 6.20833 8.9 6.675L7.825 5.6C8.275 5.16667 8.72917 4.82917 9.1875 4.5875C9.64583 4.34583 10.1167 4.16667 10.6 4.05V3.39772C10.6 3.00947 10.7355 2.67946 11.0066 2.40768C11.2777 2.13589 11.6069 2 11.9941 2C12.3814 2 12.7125 2.13589 12.9875 2.40768C13.2625 2.67946 13.4 3.00947 13.4 3.39772V4.05C14.7 4.33333 15.7792 5.01667 16.6375 6.1C17.4958 7.18333 17.925 8.43333 17.925 9.85V15.7ZM12 22C11.45 22 10.9792 21.8042 10.5875 21.4125C10.1958 21.0208 10 20.55 10 20H14C14 20.55 13.8042 21.0208 13.4125 21.4125C13.0208 21.8042 12.55 22 12 22Z" fill="#415174"/>
</svg>
