<svg width="24" height="24" viewBox="0 0 24 24" fill="none" xmlns="http://www.w3.org/2000/svg">
<path fill-rule="evenodd" clip-rule="evenodd" d="M12 7.5C12.4142 7.5 12.75 7.83579 12.75 8.25V21.75C12.75 22.1642 12.4142 22.5 12 22.5C11.5858 22.5 11.25 22.1642 11.25 21.75V8.25C11.25 7.83579 11.5858 7.5 12 7.5Z" fill="white"/>
<path fill-rule="evenodd" clip-rule="evenodd" d="M6.82922 11.6648C7.01446 11.2943 7.46497 11.1441 7.83545 11.3293L12.3355 13.5793C12.7059 13.7646 12.8561 14.2151 12.6709 14.5856C12.4856 14.9561 12.0351 15.1062 11.6646 14.921L7.16463 12.671C6.79415 12.4857 6.64398 12.0352 6.82922 11.6648Z" fill="white"/>
<path fill-rule="evenodd" clip-rule="evenodd" d="M17.1709 9.41475C17.3561 9.78524 17.2059 10.2357 16.8355 10.421L12.3355 12.671C11.965 12.8562 11.5145 12.7061 11.3292 12.3356C11.144 11.9651 11.2941 11.5146 11.6646 11.3293L16.1646 9.07934C16.5351 8.8941 16.9856 9.04427 17.1709 9.41475Z" fill="white"/>
<path fill-rule="evenodd" clip-rule="evenodd" d="M8.05563 2.69339C9.2244 1.91643 10.5966 1.50195 12 1.50195C13.4035 1.50195 14.7757 1.91643 15.9445 2.69339C17.11 3.46816 18.0214 4.56897 18.5651 5.85835C18.5696 5.86707 18.5762 5.87447 18.5843 5.87984C19.4292 6.26248 20.1862 6.81518 20.8081 7.50354C21.436 8.19852 21.9124 9.01657 22.207 9.90565C22.5016 10.7947 22.6079 11.7354 22.5192 12.6678C22.4305 13.6002 22.1487 14.5039 21.6918 15.3215C21.2349 16.1391 20.6128 16.8527 19.8652 17.4168C19.1175 17.981 18.2607 18.3834 17.3491 18.5984C16.4375 18.8134 15.4911 18.8363 14.5701 18.6657C13.6528 18.4958 12.7808 18.1376 12.0089 17.6138C12.0062 17.6123 12.0032 17.6115 12 17.6115C11.9969 17.6115 11.9939 17.6123 11.9912 17.6138C11.2193 18.1376 10.3472 18.4958 9.42995 18.6657C8.509 18.8363 7.56263 18.8134 6.65103 18.5984C5.73943 18.3834 4.88255 17.981 4.1349 17.4168C3.38724 16.8527 2.76518 16.1391 2.30826 15.3215C1.85134 14.5039 1.56958 13.6002 1.48089 12.6678C1.3922 11.7354 1.49853 10.7947 1.79311 9.90565C2.08769 9.01657 2.56407 8.19852 3.19196 7.50354C3.81387 6.81518 4.57092 6.26248 5.41581 5.87983C5.42393 5.87447 5.43053 5.86707 5.43495 5.85836C5.9787 4.56898 6.89014 3.46816 8.05563 2.69339ZM12 3.00195C10.8921 3.00195 9.80875 3.32917 8.88603 3.94256C7.96332 4.55594 7.24231 5.42817 6.81346 6.4498L6.80763 6.46332C6.66164 6.79283 6.4058 7.06146 6.0838 7.22335C6.07385 7.22835 6.06379 7.23313 6.05363 7.23768C5.38885 7.53558 4.79334 7.96858 4.30498 8.50912C3.81662 9.04966 3.4461 9.68592 3.21699 10.3774C2.98787 11.0689 2.90517 11.8006 2.97415 12.5258C3.04313 13.251 3.26228 13.9539 3.61766 14.5898C3.97304 15.2257 4.45687 15.7807 5.03838 16.2195C5.61989 16.6582 6.28635 16.9712 6.99537 17.1384C7.70439 17.3057 8.44046 17.3235 9.15675 17.1908C9.87304 17.0581 10.5539 16.7778 11.156 16.3678L11.1666 16.3607C11.4142 16.1981 11.7039 16.1115 12 16.1115C12.2962 16.1115 12.5859 16.1981 12.8335 16.3607L12.8441 16.3678C13.4462 16.7778 14.1271 17.0581 14.8433 17.1908C15.5596 17.3235 16.2957 17.3057 17.0047 17.1384C17.7137 16.9712 18.3802 16.6582 18.9617 16.2195C19.5432 15.7807 20.0271 15.2257 20.3824 14.5898C20.7378 13.9539 20.957 13.251 21.0259 12.5258C21.0949 11.8006 21.0122 11.0689 20.7831 10.3774C20.554 9.68592 20.1835 9.04966 19.6951 8.50912C19.2068 7.96858 18.6112 7.53558 17.9465 7.23768C17.9363 7.23313 17.9262 7.22835 17.9163 7.22335C17.5943 7.06146 17.3385 6.79283 17.1925 6.46332L17.1866 6.4498C16.7578 5.42817 16.0368 4.55594 15.1141 3.94256C14.1913 3.32917 13.108 3.00195 12 3.00195Z" fill="white"/>
</svg>
