<svg width="25" height="25" viewBox="0 0 25 25" fill="none" xmlns="http://www.w3.org/2000/svg">
<path d="M5.33065 20.7419C4.97581 20.7419 4.66532 20.6019 4.39919 20.3217C4.13306 20.0416 4 19.7148 4 19.3413V7.92572C4 7.55221 4.13306 7.22538 4.39919 6.94525C4.66532 6.66511 4.97581 6.52504 5.33065 6.52504H9.54436V4.40068C9.54436 4.02716 9.67742 3.70034 9.94355 3.4202C10.2097 3.14007 10.5202 3 10.875 3H14.8669C15.2218 3 15.5323 3.14007 15.7984 3.4202C16.0645 3.70034 16.1976 4.02716 16.1976 4.40068V6.52504H20.4113C20.7661 6.52504 21.0766 6.66511 21.3427 6.94525C21.6089 7.22538 21.7419 7.55221 21.7419 7.92572V19.3413C21.7419 19.7148 21.6089 20.0416 21.3427 20.3217C21.0766 20.6019 20.7661 20.7419 20.4113 20.7419H5.33065ZM10.875 6.52504H14.8669V4.40068H10.875V6.52504ZM20.4113 14.8824H14.8891V16.2831H10.8972V14.8824H5.33065V19.3413H20.4113V14.8824ZM12.2278 14.8824H13.5585V13.4817H12.2278V14.8824ZM5.33065 13.4817H10.8972V12.0811H14.8891V13.4817H20.4113V7.92572H5.33065V13.4817Z" fill="white"/>
</svg>
