<svg width="24" height="24" viewBox="0 0 24 24" fill="none" xmlns="http://www.w3.org/2000/svg">
<path fill-rule="evenodd" clip-rule="evenodd" d="M11 11.5C9.9 11.5 9 11.15 8.3 10.45C7.6 9.75 7.25 8.85 7.25 7.75C7.25 6.65 7.6 5.75 8.3 5.05C9 4.35 9.9 4 11 4C12.1 4 13 4.35 13.7 5.05C14.4 5.75 14.75 6.65 14.75 7.75C14.75 8.85 14.4 9.75 13.7 10.45C13 11.15 12.1 11.5 11 11.5ZM3 19.525V17.175C3 16.5917 3.14583 16.0625 3.4375 15.5875C3.72917 15.1125 4.15 14.7583 4.7 14.525C5.95 13.975 7.06115 13.5875 8.03345 13.3625C9.00577 13.1375 9.99327 13.025 10.996 13.025C11.6324 13.025 12.2617 13.0703 12.8836 13.161C12.5883 13.5884 12.3578 14.064 12.2064 14.5736C11.8182 14.5412 11.416 14.525 11 14.525C10.0333 14.525 9.1375 14.6125 8.3125 14.7875C7.4875 14.9625 6.48333 15.325 5.3 15.875C5.05 15.9917 4.85417 16.1708 4.7125 16.4125C4.57083 16.6542 4.5 16.9083 4.5 17.175V18.025H12.427C12.6764 18.5872 13.0263 19.0948 13.454 19.525H3ZM11 10C11.65 10 12.1875 9.7875 12.6125 9.3625C13.0375 8.9375 13.25 8.4 13.25 7.75C13.25 7.1 13.0375 6.5625 12.6125 6.1375C12.1875 5.7125 11.65 5.5 11 5.5C10.35 5.5 9.8125 5.7125 9.3875 6.1375C8.9625 6.5625 8.75 7.1 8.75 7.75C8.75 8.4 8.9625 8.9375 9.3875 9.3625C9.8125 9.7875 10.35 10 11 10ZM21 16C21 18.2091 19.2091 20 17 20C14.7909 20 13 18.2091 13 16C13 13.7909 14.7909 12 17 12C19.2091 12 21 13.7909 21 16ZM19 16.5H15V15.5H19V16.5Z" fill="#415174"/>
</svg>
