<svg width="24" height="24" viewBox="0 0 24 24" fill="none" xmlns="http://www.w3.org/2000/svg">
<path fill-rule="evenodd" clip-rule="evenodd" d="M8.3 10.45C9 11.15 9.9 11.5 11 11.5C12.1 11.5 13 11.15 13.7 10.45C14.4 9.75 14.75 8.85 14.75 7.75C14.75 6.65 14.4 5.75 13.7 5.05C13 4.35 12.1 4 11 4C9.9 4 9 4.35 8.3 5.05C7.6 5.75 7.25 6.65 7.25 7.75C7.25 8.85 7.6 9.75 8.3 10.45ZM3 17.175V19.525H13.454C13.0263 19.0948 12.6764 18.5872 12.427 18.025H4.5V17.175C4.5 16.9083 4.57083 16.6542 4.7125 16.4125C4.85417 16.1708 5.05 15.9917 5.3 15.875C6.48333 15.325 7.4875 14.9625 8.3125 14.7875C9.1375 14.6125 10.0333 14.525 11 14.525C11.416 14.525 11.8182 14.5412 12.2064 14.5736C12.3578 14.064 12.5883 13.5884 12.8836 13.161C12.2617 13.0703 11.6324 13.025 10.996 13.025C9.99327 13.025 9.00577 13.1375 8.03345 13.3625C7.06115 13.5875 5.95 13.975 4.7 14.525C4.15 14.7583 3.72917 15.1125 3.4375 15.5875C3.14583 16.0625 3 16.5917 3 17.175ZM12.6125 9.3625C12.1875 9.7875 11.65 10 11 10C10.35 10 9.8125 9.7875 9.3875 9.3625C8.9625 8.9375 8.75 8.4 8.75 7.75C8.75 7.1 8.9625 6.5625 9.3875 6.1375C9.8125 5.7125 10.35 5.5 11 5.5C11.65 5.5 12.1875 5.7125 12.6125 6.1375C13.0375 6.5625 13.25 7.1 13.25 7.75C13.25 8.4 13.0375 8.9375 12.6125 9.3625Z" fill="#415174"/>
<path fill-rule="evenodd" clip-rule="evenodd" d="M17 20C19.2091 20 21 18.2091 21 16C21 13.7909 19.2091 12 17 12C14.7909 12 13 13.7909 13 16C13 18.2091 14.7909 20 17 20ZM16.8536 17.8536L19.8536 14.8536L19.1464 14.1464L16.5 16.7929L15.3536 15.6464L14.6464 16.3536L16.1464 17.8536L16.5 18.2071L16.8536 17.8536Z" fill="#415174"/>
</svg>
