<svg width="24" height="24" viewBox="0 0 24 24" fill="none" xmlns="http://www.w3.org/2000/svg">
<path d="M13.575 15.5C13.8516 15.5 14.0916 15.3983 14.2949 15.1949C14.4983 14.9916 14.6 14.7516 14.6 14.475C14.6 14.1984 14.4983 13.9584 14.2949 13.7551C14.0916 13.5517 13.8516 13.45 13.575 13.45C13.2984 13.45 13.0584 13.5517 12.8551 13.7551C12.6517 13.9584 12.55 14.1984 12.55 14.475C12.55 14.7516 12.6517 14.9916 12.8551 15.1949C13.0584 15.3983 13.2984 15.5 13.575 15.5ZM12.95 12.35H14.125C14.1583 11.8667 14.2292 11.5083 14.3375 11.275C14.4458 11.0417 14.7167 10.7167 15.15 10.3C15.6 9.86667 15.9125 9.48838 16.0875 9.16513C16.2625 8.84188 16.35 8.46183 16.35 8.025C16.35 7.2603 16.0875 6.63579 15.5625 6.15147C15.0375 5.66716 14.35 5.425 13.5 5.425C12.8667 5.425 12.3 5.59583 11.8 5.9375C11.3 6.27917 10.9333 6.75833 10.7 7.375L11.825 7.85C12.0083 7.43333 12.2375 7.11667 12.5125 6.9C12.7875 6.68333 13.1167 6.575 13.5 6.575C13.9963 6.575 14.3995 6.71667 14.7097 7C15.0199 7.28333 15.175 7.64167 15.175 8.075C15.175 8.40833 15.1 8.7 14.95 8.95C14.8 9.2 14.5333 9.46667 14.15 9.75C13.6167 10.2333 13.2833 10.6208 13.15 10.9125C13.0167 11.2042 12.95 11.6833 12.95 12.35ZM6.5 19C6.1 19 5.75 18.85 5.45 18.55C5.15 18.25 5 17.9 5 17.5V3.5C5 3.1 5.15 2.75 5.45 2.45C5.75 2.15 6.1 2 6.5 2H20.5C20.9 2 21.25 2.15 21.55 2.45C21.85 2.75 22 3.1 22 3.5V17.5C22 17.9 21.85 18.25 21.55 18.55C21.25 18.85 20.9 19 20.5 19H6.5ZM6.5 17.5H20.5V3.5H6.5V17.5ZM3.5 22C3.1 22 2.75 21.85 2.45 21.55C2.15 21.25 2 20.9 2 20.5V5H3.5V20.5H19V22H3.5Z" fill="#415174"/>
</svg>
