<svg width="24" height="24" viewBox="0 0 24 24" fill="none" xmlns="http://www.w3.org/2000/svg">
<path d="M12 17C12.2333 17 12.4292 16.9208 12.5875 16.7625C12.7458 16.6042 12.825 16.4083 12.825 16.175C12.825 15.9417 12.7458 15.7458 12.5875 15.5875C12.4292 15.4292 12.2333 15.35 12 15.35C11.7667 15.35 11.5708 15.4292 11.4125 15.5875C11.2542 15.7458 11.175 15.9417 11.175 16.175C11.175 16.4083 11.2542 16.6042 11.4125 16.7625C11.5708 16.9208 11.7667 17 12 17ZM12.075 13.175C12.2917 13.175 12.4708 13.1042 12.6125 12.9625C12.7542 12.8208 12.825 12.6417 12.825 12.425V7.6C12.825 7.38333 12.7542 7.20417 12.6125 7.0625C12.4708 6.92083 12.2917 6.85 12.075 6.85C11.8583 6.85 11.6792 6.92083 11.5375 7.0625C11.3958 7.20417 11.325 7.38333 11.325 7.6V12.425C11.325 12.6417 11.3958 12.8208 11.5375 12.9625C11.6792 13.1042 11.8583 13.175 12.075 13.175ZM12 22C10.6333 22 9.34167 21.7375 8.125 21.2125C6.90833 20.6875 5.84583 19.9708 4.9375 19.0625C4.02917 18.1542 3.3125 17.0917 2.7875 15.875C2.2625 14.6583 2 13.3583 2 11.975C2 10.6083 2.2625 9.31667 2.7875 8.1C3.3125 6.88333 4.02917 5.825 4.9375 4.925C5.84583 4.025 6.90833 3.3125 8.125 2.7875C9.34167 2.2625 10.6417 2 12.025 2C13.3917 2 14.6833 2.2625 15.9 2.7875C17.1167 3.3125 18.175 4.025 19.075 4.925C19.975 5.825 20.6875 6.88333 21.2125 8.1C21.7375 9.31667 22 10.6167 22 12C22 13.3667 21.7375 14.6583 21.2125 15.875C20.6875 17.0917 19.975 18.1542 19.075 19.0625C18.175 19.9708 17.1167 20.6875 15.9 21.2125C14.6833 21.7375 13.3833 22 12 22ZM12.025 20.5C14.375 20.5 16.375 19.6708 18.025 18.0125C19.675 16.3542 20.5 14.3417 20.5 11.975C20.5 9.625 19.675 7.625 18.025 5.975C16.375 4.325 14.3667 3.5 12 3.5C9.65 3.5 7.64583 4.325 5.9875 5.975C4.32917 7.625 3.5 9.63333 3.5 12C3.5 14.35 4.32917 16.3542 5.9875 18.0125C7.64583 19.6708 9.65833 20.5 12.025 20.5Z" fill="#415174"/>
</svg>
