<svg width="24" height="24" viewBox="0 0 24 24" fill="none" xmlns="http://www.w3.org/2000/svg">
<path fill-rule="evenodd" clip-rule="evenodd" d="M7.38462 22C7.00385 22 6.67788 21.8531 6.40673 21.5594C6.13558 21.2656 6 20.9125 6 20.5V3.5C6 3.0875 6.13558 2.73438 6.40673 2.44063C6.67788 2.14687 7.00385 2 7.38462 2H16.6154C16.9962 2 17.3221 2.14687 17.5933 2.44063C17.8644 2.73438 18 3.0875 18 3.5V20.5C18 20.9125 17.8644 21.2656 17.5933 21.5594C17.3221 21.8531 16.9962 22 16.6154 22H7.38462ZM7.38462 20.5H16.6154V3.5H7.38462V20.5ZM4.5 20.5V3.5C4.03333 3.5 3.66667 3.62083 3.4 3.8625C3.13333 4.10417 3 4.48333 3 5V19C3 19.5167 3.13333 19.8958 3.4 20.1375C3.66667 20.3792 4.03333 20.5 4.5 20.5ZM19.5 3.5V20.5C19.9667 20.5 20.3333 20.3792 20.6 20.1375C20.8667 19.8958 21 19.5167 21 19V5C21 4.48333 20.8667 4.10417 20.6 3.8625C20.3333 3.62083 19.9667 3.5 19.5 3.5Z" fill="#415174"/>
</svg>
