<svg width="24" height="24" viewBox="0 0 24 24" fill="none" xmlns="http://www.w3.org/2000/svg">
<path fill-rule="evenodd" clip-rule="evenodd" d="M18 19.5607L20.4697 22.0303L21.5303 20.9697L2.53033 1.96967L1.46967 3.03033L3.03228 4.59294C3.01076 4.71753 3 4.85321 3 5V19C3 19.5167 3.13333 19.8958 3.4 20.1375C3.66666 20.3792 4.03333 20.5 4.5 20.5V6.06066L6 7.56066V20.5C6 20.9125 6.13557 21.2656 6.40673 21.5594C6.67788 21.8531 7.00384 22 7.38461 22H16.6154C16.9961 22 17.3221 21.8531 17.5933 21.5594C17.8644 21.2656 18 20.9125 18 20.5V19.5607ZM16.6154 18.176L7.38461 8.94527V20.5H16.6154V18.176ZM21 5V18.4393L19.5 16.9393V3.5C19.9667 3.5 20.3333 3.62083 20.6 3.8625C20.8667 4.10416 21 4.48333 21 5ZM18 3.5V15.4393L16.6154 14.0547V3.5H7.38461V4.82395L6.00096 3.4403C6.01349 3.05332 6.14875 2.7201 6.40673 2.44062C6.67788 2.14687 7.00384 2 7.38461 2H16.6154C16.9961 2 17.3221 2.14687 17.5933 2.44062C17.8644 2.73437 18 3.0875 18 3.5Z" fill="#415174"/>
</svg>
