<svg width="24" height="24" viewBox="0 0 24 24" fill="none" xmlns="http://www.w3.org/2000/svg">
<path d="M21 6.925V19.5C21 19.9 20.85 20.25 20.55 20.55C20.25 20.85 19.9 21 19.5 21H4.5C4.1 21 3.75 20.85 3.45 20.55C3.15 20.25 3 19.9 3 19.5V4.5C3 4.1 3.15 3.75 3.45 3.45C3.75 3.15 4.1 3 4.5 3H17.075L21 6.925ZM19.5 7.6L16.4 4.5H4.5V19.5H19.5V7.6ZM11.9941 17.875C12.7147 17.875 13.3292 17.6228 13.8375 17.1184C14.3458 16.614 14.6 16.0015 14.6 15.2809C14.6 14.5603 14.3478 13.9458 13.8434 13.4375C13.339 12.9292 12.7265 12.675 12.0059 12.675C11.2853 12.675 10.6708 12.9272 10.1625 13.4316C9.65417 13.936 9.4 14.5485 9.4 15.2691C9.4 15.9897 9.65221 16.6042 10.1566 17.1125C10.661 17.6208 11.2735 17.875 11.9941 17.875ZM5.825 9.4H14.775V5.825H5.825V9.4ZM4.5 7.6V19.5V4.5V7.6Z" fill="#415174"/>
</svg>
