<svg width="24" height="24" viewBox="0 0 24 24" fill="none" xmlns="http://www.w3.org/2000/svg">
<path d="M18.175 22C17.3917 22 16.7208 21.7208 16.1625 21.1625C15.6042 20.6042 15.325 19.9333 15.325 19.15C15.325 19.0333 15.3375 18.8958 15.3625 18.7375C15.3875 18.5792 15.425 18.4333 15.475 18.3L7.9 13.9C7.65 14.1833 7.34167 14.4125 6.975 14.5875C6.60833 14.7625 6.23333 14.85 5.85 14.85C5.06667 14.85 4.39583 14.5708 3.8375 14.0125C3.27917 13.4542 3 12.7833 3 12C3 11.2 3.27917 10.525 3.8375 9.975C4.39583 9.425 5.06667 9.15 5.85 9.15C6.23333 9.15 6.6 9.225 6.95 9.375C7.3 9.525 7.61667 9.74167 7.9 10.025L15.475 5.675C15.425 5.55833 15.3875 5.425 15.3625 5.275C15.3375 5.125 15.325 4.98333 15.325 4.85C15.325 4.05 15.6042 3.375 16.1625 2.825C16.7208 2.275 17.3917 2 18.175 2C18.975 2 19.65 2.275 20.2 2.825C20.75 3.375 21.025 4.05 21.025 4.85C21.025 5.63333 20.75 6.30417 20.2 6.8625C19.65 7.42083 18.975 7.7 18.175 7.7C17.7917 7.7 17.4208 7.6375 17.0625 7.5125C16.7042 7.3875 16.4 7.18333 16.15 6.9L8.575 11.1C8.60833 11.2333 8.6375 11.3875 8.6625 11.5625C8.6875 11.7375 8.7 11.8833 8.7 12C8.7 12.1167 8.6875 12.2417 8.6625 12.375C8.6375 12.5083 8.60833 12.6417 8.575 12.775L16.15 17.075C16.4 16.8417 16.6917 16.6542 17.025 16.5125C17.3583 16.3708 17.7417 16.3 18.175 16.3C18.975 16.3 19.65 16.575 20.2 17.125C20.75 17.675 21.025 18.35 21.025 19.15C21.025 19.9333 20.75 20.6042 20.2 21.1625C19.65 21.7208 18.975 22 18.175 22ZM18.175 6.2C18.5583 6.2 18.8792 6.07083 19.1375 5.8125C19.3958 5.55417 19.525 5.23333 19.525 4.85C19.525 4.46667 19.3958 4.14583 19.1375 3.8875C18.8792 3.62917 18.5583 3.5 18.175 3.5C17.7917 3.5 17.4708 3.62917 17.2125 3.8875C16.9542 4.14583 16.825 4.46667 16.825 4.85C16.825 5.23333 16.9542 5.55417 17.2125 5.8125C17.4708 6.07083 17.7917 6.2 18.175 6.2ZM5.85 13.35C6.23333 13.35 6.55417 13.2208 6.8125 12.9625C7.07083 12.7042 7.2 12.3833 7.2 12C7.2 11.6167 7.07083 11.2958 6.8125 11.0375C6.55417 10.7792 6.23333 10.65 5.85 10.65C5.46667 10.65 5.14583 10.7792 4.8875 11.0375C4.62917 11.2958 4.5 11.6167 4.5 12C4.5 12.3833 4.62917 12.7042 4.8875 12.9625C5.14583 13.2208 5.46667 13.35 5.85 13.35ZM18.175 20.5C18.5583 20.5 18.8792 20.3708 19.1375 20.1125C19.3958 19.8542 19.525 19.5333 19.525 19.15C19.525 18.7667 19.3958 18.4458 19.1375 18.1875C18.8792 17.9292 18.5583 17.8 18.175 17.8C17.7917 17.8 17.4708 17.9292 17.2125 18.1875C16.9542 18.4458 16.825 18.7667 16.825 19.15C16.825 19.5333 16.9542 19.8542 17.2125 20.1125C17.4708 20.3708 17.7917 20.5 18.175 20.5Z" fill="#415174"/>
</svg>
