<svg width="24" height="24" viewBox="0 0 24 24" fill="none" xmlns="http://www.w3.org/2000/svg">
<path d="M15.65 10.675C16.0333 10.675 16.3542 10.5417 16.6125 10.275C16.8708 10.0083 17 9.69167 17 9.325C17 8.94167 16.8708 8.62083 16.6125 8.3625C16.3542 8.10417 16.0333 7.975 15.65 7.975C15.2833 7.975 14.9667 8.10417 14.7 8.3625C14.4333 8.62083 14.3 8.94167 14.3 9.325C14.3 9.69167 14.4333 10.0083 14.7 10.275C14.9667 10.5417 15.2833 10.675 15.65 10.675ZM8.35 10.675C8.73333 10.675 9.05417 10.5417 9.3125 10.275C9.57083 10.0083 9.7 9.69167 9.7 9.325C9.7 8.94167 9.57083 8.62083 9.3125 8.3625C9.05417 8.10417 8.73333 7.975 8.35 7.975C7.98333 7.975 7.66667 8.10417 7.4 8.3625C7.13333 8.62083 7 8.94167 7 9.325C7 9.69167 7.13333 10.0083 7.4 10.275C7.66667 10.5417 7.98333 10.675 8.35 10.675ZM12 17.475C13.1 17.475 14.1125 17.1792 15.0375 16.5875C15.9625 15.9958 16.6333 15.1917 17.05 14.175H15.75C15.3667 14.8417 14.8417 15.3542 14.175 15.7125C13.5083 16.0708 12.7917 16.25 12.025 16.25C11.2417 16.25 10.5125 16.075 9.8375 15.725C9.1625 15.375 8.64167 14.8583 8.275 14.175H6.95C7.38333 15.1917 8.05833 15.9958 8.975 16.5875C9.89167 17.1792 10.9 17.475 12 17.475ZM12 22C10.6167 22 9.31667 21.7375 8.1 21.2125C6.88333 20.6875 5.825 19.975 4.925 19.075C4.025 18.175 3.3125 17.1167 2.7875 15.9C2.2625 14.6833 2 13.3833 2 12C2 10.6167 2.2625 9.31667 2.7875 8.1C3.3125 6.88333 4.025 5.825 4.925 4.925C5.825 4.025 6.88333 3.3125 8.1 2.7875C9.31667 2.2625 10.6167 2 12 2C13.3833 2 14.6833 2.2625 15.9 2.7875C17.1167 3.3125 18.175 4.025 19.075 4.925C19.975 5.825 20.6875 6.88333 21.2125 8.1C21.7375 9.31667 22 10.6167 22 12C22 13.3833 21.7375 14.6833 21.2125 15.9C20.6875 17.1167 19.975 18.175 19.075 19.075C18.175 19.975 17.1167 20.6875 15.9 21.2125C14.6833 21.7375 13.3833 22 12 22ZM12 20.5C14.3667 20.5 16.375 19.675 18.025 18.025C19.675 16.375 20.5 14.3667 20.5 12C20.5 9.63333 19.675 7.625 18.025 5.975C16.375 4.325 14.3667 3.5 12 3.5C9.63333 3.5 7.625 4.325 5.975 5.975C4.325 7.625 3.5 9.63333 3.5 12C3.5 14.3667 4.325 16.375 5.975 18.025C7.625 19.675 9.63333 20.5 12 20.5Z" fill="#415174"/>
</svg>
