<svg width="32" height="32" viewBox="0 0 32 32" fill="none" xmlns="http://www.w3.org/2000/svg">
<path fill-rule="evenodd" clip-rule="evenodd" d="M16 10C16.5523 10 17 10.4477 17 11V29C17 29.5523 16.5523 30 16 30C15.4477 30 15 29.5523 15 29V11C15 10.4477 15.4477 10 16 10Z" fill="#415174"/>
<path fill-rule="evenodd" clip-rule="evenodd" d="M9.10555 15.5528C9.35254 15.0588 9.95321 14.8586 10.4472 15.1056L16.4472 18.1056C16.9412 18.3526 17.1414 18.9532 16.8944 19.4472C16.6474 19.9412 16.0467 20.1414 15.5528 19.8944L9.55276 16.8944C9.05878 16.6474 8.85856 16.0468 9.10555 15.5528Z" fill="#415174"/>
<path fill-rule="evenodd" clip-rule="evenodd" d="M22.8944 12.5528C23.1414 13.0468 22.9412 13.6474 22.4472 13.8944L16.4472 16.8944C15.9532 17.1414 15.3525 16.9412 15.1055 16.4472C14.8586 15.9532 15.0588 15.3526 15.5528 15.1056L21.5528 12.1056C22.0467 11.8586 22.6474 12.0588 22.8944 12.5528Z" fill="#415174"/>
<path fill-rule="evenodd" clip-rule="evenodd" d="M10.7408 3.591C12.2991 2.55506 14.1287 2.00243 16 2.00243C17.8713 2.00243 19.7009 2.55507 21.2592 3.591C22.8132 4.62404 24.0285 6.09178 24.7535 7.81096C24.7593 7.82258 24.7682 7.83244 24.779 7.8396C25.9055 8.34979 26.9149 9.08673 27.7441 10.0045C28.5813 10.9312 29.2165 12.0219 29.6093 13.2074C30.002 14.3928 30.1438 15.647 30.0255 16.8902C29.9073 18.1334 29.5316 19.3384 28.9224 20.4285C28.3132 21.5187 27.4837 22.4701 26.4869 23.2223C25.49 23.9745 24.3475 24.511 23.132 24.7976C21.9166 25.0843 20.6547 25.1149 19.4268 24.8875C18.2037 24.6609 17.041 24.1833 16.0118 23.4848C16.0082 23.4829 16.0041 23.4819 16 23.4819C15.9959 23.4819 15.9918 23.4829 15.9882 23.4848C14.959 24.1833 13.7963 24.6609 12.5732 24.8875C11.3453 25.1149 10.0834 25.0843 8.86798 24.7976C7.65251 24.511 6.51001 23.9745 5.51314 23.2223C4.51626 22.4701 3.68684 21.5187 3.07762 20.4285C2.4684 19.3384 2.09271 18.1334 1.97446 16.8902C1.85621 15.647 1.99798 14.3928 2.39075 13.2074C2.78352 12.0219 3.4187 10.9312 4.25588 10.0045C5.08509 9.08673 6.0945 8.34979 7.22102 7.8396C7.23184 7.83244 7.24065 7.82259 7.24654 7.81097C7.97154 6.09179 9.18679 4.62404 10.7408 3.591ZM16 4.00243C14.5227 4.00243 13.0783 4.43872 11.848 5.25657C10.6177 6.07441 9.65635 7.23738 9.08456 8.59955L9.07678 8.61758C8.88213 9.05693 8.54101 9.41511 8.11167 9.63095C8.0984 9.63762 8.08499 9.64399 8.07144 9.65006C7.18507 10.0473 6.39106 10.6246 5.73991 11.3453C5.08877 12.066 4.59474 12.9144 4.28925 13.8364C3.98377 14.7584 3.8735 15.7339 3.96547 16.7008C4.05745 17.6678 4.34965 18.605 4.82349 19.4529C5.29733 20.3007 5.94243 21.0407 6.71778 21.6258C7.49312 22.2108 8.38174 22.6281 9.3271 22.8511C10.2725 23.074 11.2539 23.0978 12.2089 22.9209C13.164 22.744 14.0718 22.3703 14.8746 21.8235L14.8887 21.814C15.2188 21.5973 15.6051 21.4819 16 21.4819C16.3949 21.4819 16.7812 21.5973 17.1113 21.814L17.1254 21.8235C17.9282 22.3703 18.836 22.744 19.7911 22.9209C20.7461 23.0978 21.7275 23.074 22.6729 22.8511C23.6183 22.6281 24.5069 22.2108 25.2822 21.6258C26.0576 21.0407 26.7027 20.3007 27.1765 19.4529C27.6504 18.605 27.9426 17.6678 28.0345 16.7008C28.1265 15.7339 28.0162 14.7584 27.7107 13.8364C27.4053 12.9144 26.9112 12.066 26.2601 11.3453C25.6089 10.6246 24.8149 10.0473 23.9286 9.65006C23.915 9.64399 23.9016 9.63762 23.8883 9.63095C23.459 9.41511 23.1179 9.05693 22.9232 8.61758L22.9154 8.59955C22.3436 7.23738 21.3823 6.07441 20.152 5.25657C18.9217 4.43872 17.4773 4.00243 16 4.00243Z" fill="#415174"/>
</svg>
