<svg width="24" height="24" viewBox="0 0 24 24" fill="none" xmlns="http://www.w3.org/2000/svg">
<path d="M12 22C10.5833 22 9.26667 21.7458 8.05 21.2375C6.83333 20.7292 5.775 20.025 4.875 19.125C3.975 18.225 3.27083 17.1667 2.7625 15.95C2.25417 14.7333 2 13.4167 2 12C2 10.6 2.25417 9.29167 2.7625 8.075C3.27083 6.85833 3.975 5.8 4.875 4.9C5.775 4 6.83333 3.29167 8.05 2.775C9.26667 2.25833 10.5833 2 12 2C13.25 2 14.4167 2.2 15.5 2.6C16.5833 3 17.5583 3.55 18.425 4.25L17.35 5.325C16.6167 4.74167 15.8 4.29167 14.9 3.975C14 3.65833 13.0333 3.5 12 3.5C9.58333 3.5 7.5625 4.3125 5.9375 5.9375C4.3125 7.5625 3.5 9.58333 3.5 12C3.5 14.4167 4.3125 16.4375 5.9375 18.0625C7.5625 19.6875 9.58333 20.5 12 20.5C14.4167 20.5 16.4375 19.6875 18.0625 18.0625C19.6875 16.4375 20.5 14.4167 20.5 12C20.5 11.5 20.4625 11.0125 20.3875 10.5375C20.3125 10.0625 20.2 9.6 20.05 9.15L21.2 8C21.4667 8.61667 21.6667 9.25833 21.8 9.925C21.9333 10.5917 22 11.2833 22 12C22 13.4167 21.7417 14.7333 21.225 15.95C20.7083 17.1667 20 18.225 19.1 19.125C18.2 20.025 17.1417 20.7292 15.925 21.2375C14.7083 21.7458 13.4 22 12 22ZM10.525 16.55L6.4 12.4L7.525 11.275L10.525 14.275L20.875 3.925L22.025 5.05L10.525 16.55Z" fill="#415174"/>
</svg>
