<svg width="24" height="24" viewBox="0 0 24 24" fill="none" xmlns="http://www.w3.org/2000/svg">
<path d="M8.75 18.5H20.5V15.075H8.75V18.5ZM3.5 8.925H7.25V5.5H3.5V8.925ZM3.5 13.6H7.25V10.425H3.5V13.6ZM3.5 18.5H7.25V15.075H3.5V18.5ZM8.75 13.6H20.5V10.425H8.75V13.6ZM8.75 8.925H20.5V5.5H8.75V8.925ZM3.5 20C3.1 20 2.75 19.85 2.45 19.55C2.15 19.25 2 18.9 2 18.5V5.5C2 5.1 2.15 4.75 2.45 4.45C2.75 4.15 3.1 4 3.5 4H20.5C20.9 4 21.25 4.15 21.55 4.45C21.85 4.75 22 5.1 22 5.5V18.5C22 18.9 21.85 19.25 21.55 19.55C21.25 19.85 20.9 20 20.5 20H3.5Z" fill="#415174"/>
</svg>
