<svg width="24" height="24" viewBox="0 0 24 24" fill="none" xmlns="http://www.w3.org/2000/svg">
<path fill-rule="evenodd" clip-rule="evenodd" d="M15.75 5.5H20.5V11.25H15.75V5.5ZM14.25 4H15.75H20.5C21.3284 4 22 4.67157 22 5.5V18.5C22 19.3284 21.3284 20 20.5 20H15.75H14.25H9.75H8.25H3.5C2.67157 20 2 19.3284 2 18.5V5.5C2 4.67157 2.67157 4 3.5 4H8.25H9.75H14.25ZM9.75 5.5H14.25V11.25H9.75V5.5ZM8.25 5.5H3.5L3.5 11.25H8.25V5.5ZM3.5 12.75L3.5 18.5H8.25V12.75H3.5ZM9.75 18.5H14.25V12.75H9.75V18.5ZM15.75 18.5H20.5V12.75H15.75V18.5Z" fill="#415174"/>
</svg>
