<svg width="24" height="24" viewBox="0 0 24 24" fill="none" xmlns="http://www.w3.org/2000/svg">
<path fill-rule="evenodd" clip-rule="evenodd" d="M8.125 21.2125C9.34167 21.7375 10.6333 22 12 22C13.3833 22 14.6833 21.7375 15.9 21.2125C17.1167 20.6875 18.175 19.9708 19.075 19.0625C19.975 18.1542 20.6875 17.0917 21.2125 15.875C21.7375 14.6583 22 13.3667 22 12C22 10.6167 21.7375 9.31667 21.2125 8.1C20.6875 6.88333 19.975 5.825 19.075 4.925C18.175 4.025 17.1167 3.3125 15.9 2.7875C14.6833 2.2625 13.3833 2 12 2C10.6333 2 9.34167 2.2625 8.125 2.7875C6.90833 3.3125 5.84583 4.025 4.9375 4.925C4.02917 5.825 3.3125 6.88333 2.7875 8.1C2.2625 9.31667 2 10.6167 2 12C2 13.3667 2.2625 14.6583 2.7875 15.875C3.3125 17.0917 4.02917 18.1542 4.9375 19.0625C5.84583 19.9708 6.90833 20.6875 8.125 21.2125ZM18.025 18.0125C16.375 19.6708 14.3667 20.5 12 20.5C9.65 20.5 7.64583 19.6708 5.9875 18.0125C4.32917 16.3542 3.5 14.35 3.5 12C3.5 9.63333 4.32917 7.625 5.9875 5.975C7.64583 4.325 9.65 3.5 12 3.5C14.3667 3.5 16.375 4.325 18.025 5.975C19.675 7.625 20.5 9.63333 20.5 12C20.5 14.35 19.675 16.3542 18.025 18.0125ZM9.90557 6.86912C9.67479 6.72076 9.38141 6.71025 9.14061 6.84172C8.8998 6.97318 8.75 7.22564 8.75 7.5V16.5C8.75 16.7744 8.8998 17.0268 9.14061 17.1583C9.38141 17.2898 9.67479 17.2792 9.90557 17.1309L16.9056 12.6309C17.1202 12.4929 17.25 12.2552 17.25 12C17.25 11.7448 17.1202 11.5071 16.9056 11.3691L9.90557 6.86912ZM15.1131 12L10.25 15.1263V8.87375L15.1131 12Z" fill="#415174"/>
</svg>
