<svg width="24" height="24" viewBox="0 0 24 24" fill="none" xmlns="http://www.w3.org/2000/svg">
<path d="M3.5 20C3.11667 20 2.77083 19.8458 2.4625 19.5375C2.15417 19.2292 2 18.8833 2 18.5V5.5C2 5.11667 2.15417 4.77083 2.4625 4.4625C2.77083 4.15417 3.11667 4 3.5 4H10.5L12 5.5H20.5C20.8833 5.5 21.2292 5.65417 21.5375 5.9625C21.8458 6.27083 22 6.61667 22 7V18.5C22 18.8833 21.8458 19.2292 21.5375 19.5375C21.2292 19.8458 20.8833 20 20.5 20H3.5ZM16 18.5H20.5V7H16V9.3H18.3V11.6H16V13.9H18.3V16.2H16V18.5ZM3.5 18.5H13.7V16.2H16V13.9H13.7V11.6H16V9.3H13.7V7H11.375L9.875 5.5H3.5V18.5ZM3.5 7V5.5V18.5V7Z" fill="#415174"/>
</svg>
